PathFileType	4	(X/Y/Z)	3_coords_data.trc
DataRate	CameraRate	NumFrames	NumMarkers	Units	OrigDataRate	OrigDataStartFrame	OrigNumFrames
30.0	30.0	4	21	m	30.0	1	58
Frame#	Time	THUMB_TIP	THUMB_IP	THUMB_MCP	THUMB_CMC	INDEX_TIP	INDEX_DIP	INDEX_PIP	INDEX_MCP	MIDDLE_TIP	MIDDLE_DIP	MIDDLE_PIP	MIDDLE_MCP	RING_TIP	RING_DIP	RING_PIP	RING_MCP	PINKY_TIP	PINKY_DIP	PINKY_PIP	PINKY_MCP	WRIST
X1	Y1	Z1	X2	Y2	Z2	X3	Y3	Z3	X4	Y4	Z4	X5	Y5	Z5	X6	Y6	Z6	X7	Y7	Z7	X8	Y8	Z8	X9	Y9	Z9	X10	Y10	Z10	X11	Y11	Z11	X12	Y12	Z12	X13	Y13	Z13	X14	Y14	Z14	X15	Y15	Z15	X16	Y16	Z16	X17	Y17	Z17	X18	Y18	Z18	X19	Y19	Z19	X20	Y20	Z20	X21	Y21	Z21
0	-2.749317978547796e-18	0.46933920483127256	-0.02004403263987442	-0.17127899829875515	0.47821580135943187	-0.026097946546501993	-0.1509675197585944	0.4723359352821461	-0.030894223204949278	-0.12078071957823705	0.4737457974026478	-0.033054455324890375	-0.0762471851801102	0.5664193460319996	0.02684793374101213	-0.17366135392858728	0.5554921042087572	0.017693679846058408	-0.162490184707637	0.5406383994422902	0.005753226697581049	-0.14609497606853583	0.5146116863714072	-0.012275250137925742	-0.11761304629336933	0.5834600349207014	0.04888388205118965	-0.14576781237151148	0.5728601525723116	0.03705150119815559	-0.13707084407508502	0.5533065546794032	0.021225816817750598	-0.1223530292463052	0.5257405891662683	-0.00619238950501988	-0.10034149980442741	0.6037100434547589	0.03883300200614448	-0.10020007388731622	0.588686330611336	0.02957490517949679	-0.09651555281304003	0.5670776682509551	0.01824639061211175	-0.09152451607789114	0.532130581797331	-0.0007150764585742708	-0.08418389288021755	0.5996612477781085	0.02519561349487265	-0.053813921694250366	0.5837292043751655	0.01930972588852975	-0.05594143669824925	0.5641530962662051	0.012481366101718572	-0.059252254260144466	0.5322237606706142	-0.0032213314413457317	-0.06515363285291187	0.4622830810018609	-0.023011742144276925	-0.051989820119430985
1	0.03333333333333339	0.46911022264998925	-0.01997231448293224	-0.1716744948916505	0.4776958089713801	-0.026133818884210402	-0.15127048619161848	0.47188339234766596	-0.03095916242640062	-0.1210752568880975	0.4732147829423492	-0.03295492902005459	-0.07653163428296983	0.5660451628261773	0.027314393178821117	-0.17377236886338626	0.5552864325641707	0.017964880996552024	-0.162599350242486	0.5401885973859554	0.00612710654699522	-0.14635335682832806	0.5141606745120376	-0.011977839638211751	-0.1179210820600271	0.5847681201454665	0.048015676321424894	-0.14631301102605188	0.5739231119573002	0.03645030418646733	-0.13755927098087384	0.5543639446966204	0.020531897035656832	-0.12294924566091708	0.5250421444937048	-0.004850803492356226	-0.10076595312429171	0.6037350594891386	0.03911973375455635	-0.10008140708071978	0.5887202946262554	0.029866915393171323	-0.09634748307459085	0.567032317095639	0.018647521217884266	-0.09145495775825252	0.5318758922202549	4.278376822164365e-05	-0.08420165723982642	0.5996495052277233	0.025529866548932967	-0.053384527917630376	0.5836927214189179	0.019669331998162565	-0.05539330497302264	0.5640774493150716	0.012899372644047391	-0.05859029881657407	0.5321585539284104	-0.002728041978275031	-0.06474265450503991	0.4622830810018608	-0.023011742144276925	-0.051989820119430985
2	0.06666666666666676	0.4690065217417593	-0.01994257226062679	-0.17196508087698104	0.47735317100067076	-0.026178120293971707	-0.1514845685085719	0.4715635096107508	-0.031017326398384393	-0.121287186084443	0.47281896309892657	-0.03287674433900867	-0.07673545882880095	0.5657828129809627	0.027652298980893053	-0.17383892066316392	0.5551522327003712	0.018158175455644354	-0.16266518443103378	0.5398702309013895	0.00640309626413349	-0.1465317295246218	0.5138338650782459	-0.011751332692363836	-0.11813876458633243	0.5855716747931234	0.04744412467224968	-0.1466651745572199	0.5745471148274371	0.0360822579676886	-0.13786931970673622	0.5549849774008588	0.02009675700800151	-0.12333673258773009	0.5244787534355984	-0.003776233353876779	-0.10107468974429268	0.6037506990381056	0.03934839124271905	-0.09996569573185066	0.5887419390583518	0.030102075532985828	-0.09619173631684841	0.5669916685420439	0.018970855413125043	-0.09137492719559026	0.531683550481638	0.0006276349532602365	-0.08419273420227447	0.5996372517898857	0.025788310105508527	-0.053043155689441956	0.5836621785011187	0.01994704672447356	-0.0549606216035855	0.5640173991986419	0.013220032951458793	-0.05806577069093244	0.5321050070121449	-0.002342647178903534	-0.06441286948449432	0.4622830810018609	-0.023011742144276925	-0.051989820119430985
3	0.10000000000000014	0.46901497630445876	-0.01995193563616582	-0.17216747655738507	0.4771713561519364	-0.026231931968389022	-0.15162398333322952	0.47136474774311876	-0.031071312949509267	-0.1214298830733076	0.472547505595059	-0.03282010529101376	-0.07687168731528837	0.565624467060121	0.027876627467587456	-0.17386898569256426	0.5550848249667673	0.018282527375955926	-0.16269449742796077	0.5396701774981075	0.00659192226096128	-0.1466405811312373	0.5136195583267463	-0.011588559057948977	-0.11827737549785594	0.5860592010430562	0.04708243939413537	-0.14688640601129827	0.5749095550742507	0.035867748615775796	-0.13805939601265887	0.5553465033278893	0.01983828364169471	-0.12357655067709394	0.5240618084343632	-0.0029693926971049445	-0.10127799273171234	0.6037641583081325	0.039523589454326435	-0.09985558164349229	0.5887584523849726	0.03028484668585585	-0.09605105515446877	0.5669612325147904	0.01922222635363513	-0.09128874307774903	0.5315492759529133	0.0010580348057896982	-0.08416299316121911	0.5996275496220992	0.02598492361904936	-0.05278709506276835	0.5836394674254027	0.020157433295557525	-0.05463684753304243	0.563973841774563	0.013458811609410648	-0.057670600038919995	0.532063438089061	-0.002051123390983345	-0.06415531313294831	0.462283081001861	-0.023011742144276925	-0.051989820119430985
